<?xml version="1.0" standalone="no"?>
<!DOCTYPE svg PUBLIC "-//W3C//DTD SVG 1.1//EN" "http://www.w3.org/Graphics/SVG/1.1/DTD/svg11.dtd" >
<svg xmlns="http://www.w3.org/2000/svg">
<metadata>
Created by FontForge 20120731 at Thu Jun 11 09:42:36 2015
 By Ads
</metadata>
<defs>
<font id="iconfont" horiz-adv-x="1024" >
  <font-face 
    font-family="iconfont"
    font-weight="500"
    font-stretch="normal"
    units-per-em="1024"
    panose-1="2 0 6 3 0 0 0 0 0 0"
    ascent="812"
    descent="-212"
    x-height="792"
    bbox="3 -208 1008 792"
    underline-thickness="50"
    underline-position="-100"
    unicode-range="U+0078-E63D"
  />
<missing-glyph horiz-adv-x="374" 
d="M34 0v682h272v-682h-272zM68 34h204v614h-204v-614z" />
    <glyph glyph-name=".notdef" horiz-adv-x="374" 
d="M34 0v682h272v-682h-272zM68 34h204v614h-204v-614z" />
    <glyph glyph-name=".null" horiz-adv-x="0" 
 />
    <glyph glyph-name="nonmarkingreturn" horiz-adv-x="341" 
 />
    <glyph glyph-name="x" unicode="x" horiz-adv-x="1001" 
d="M281 543q-27 -1 -53 -1h-83q-18 0 -36.5 -6t-32.5 -18.5t-23 -32t-9 -45.5v-76h912v41q0 16 -0.5 30t-0.5 18q0 13 -5 29t-17 29.5t-31.5 22.5t-49.5 9h-133v-97h-438v97zM955 310v-52q0 -23 0.5 -52t0.5 -58t-10.5 -47.5t-26 -30t-33 -16t-31.5 -4.5q-14 -1 -29.5 -0.5
t-29.5 0.5h-32l-45 128h-439l-44 -128h-29h-34q-20 0 -45 1q-25 0 -41 9.5t-25.5 23t-13.5 29.5t-4 30v167h911zM163 247q-12 0 -21 -8.5t-9 -21.5t9 -21.5t21 -8.5q13 0 22 8.5t9 21.5t-9 21.5t-22 8.5zM316 123q-8 -26 -14 -48q-5 -19 -10.5 -37t-7.5 -25t-3 -15t1 -14.5
t9.5 -10.5t21.5 -4h37h67h81h80h64h36q23 0 34 12t2 38q-5 13 -9.5 30.5t-9.5 34.5q-5 19 -11 39h-368zM336 498v228q0 11 2.5 23t10 21.5t20.5 15.5t34 6h188q31 0 51.5 -14.5t20.5 -52.5v-227h-327z" />
    <glyph glyph-name="uniE600" unicode="&#xe600;" 
d="M512 226q-13 0 -22.5 8t-9.5 19v204q0 10 9.5 18t22.5 8q3 0 7 -0.5t7 -2t6 -3.5l4 -4q3 -2 4.5 -4.5t2 -5.5t0.5 -6v-204q0 -5 -1.5 -9t-4.5 -7t-6.5 -5.5t-8.5 -4t-10 -1.5zM495 268q8 10 20 12t21 -5l180 -148q9 -7 9 -19t-8 -22q-9 -10 -20.5 -12.5t-20.5 4.5
l-180 149q-9 7 -9 19t8 22zM543 625v60h71q7 0 13 4.5t9.5 11.5t3.5 16q0 13 -7.5 22t-18.5 9h-204q-11 0 -19 -9t-8 -22t8 -22.5t19 -9.5h70v-60q-94 -8 -172.5 -59t-124 -134t-45.5 -179q0 -101 50 -187t136 -136t188 -50q76 0 145 29.5t119 79.5t79.5 119t29.5 145
q0 146 -98.5 253t-243.5 119zM512 -67q-87 0 -161 42.5t-117 116.5t-43 161q0 65 25.5 124.5t68.5 102.5t102.5 68.5t124.5 25.5q87 0 160.5 -43t116.5 -117t43 -161q0 -132 -93 -226q-95 -93 -227 -94z" />
    <glyph glyph-name="uniE601" unicode="&#xe601;" 
d="M512 737q-100 0 -184.5 -48.5t-134 -131.5t-49.5 -181q0 -32 15 -73.5t34 -74.5t44 -68.5t37.5 -51t21.5 -26.5q21 -25 29 -35t17 -24q34 -53 117 -159q11 -13 24.5 -20t28.5 -7q5 0 10 1t9.5 2.5t9 4t8.5 5t8 6.5l8 8q83 106 117 159q15 24 46 59q13 15 31 38.5t49 69
t51.5 96t20.5 90.5q0 98 -49.5 181t-134 131.5t-184.5 48.5zM684 118q-34 -38 -50 -65q-32 -49 -115 -155l-7 -4q-2 1 -2.5 1t-2 1t-2.5 2q-83 106 -115 155q-17 27 -50 65q-35 40 -65.5 85.5t-51.5 93t-21 79.5q0 50 15.5 96.5t44.5 83.5t67 65.5t85 44t98 15.5q36 0 71 -8
t65.5 -23t57.5 -36t48 -47.5t36.5 -56.5t23.5 -64t8 -70q0 -47 -41.5 -120.5t-96.5 -137.5zM512 512q-14 0 -28 -3t-26.5 -8t-24 -13t-21 -17.5t-17 -20.5t-13 -23.5t-8.5 -26.5t-3 -29q0 -38 19 -70.5t51.5 -51t70.5 -18.5q58 0 99.5 41t41.5 99.5t-41.5 99.5t-99.5 41z
M512 287q-14 0 -27 4t-23 12t-18 18.5t-12 23.5t-4 26q0 35 24.5 60t59.5 25q17 0 32.5 -7t27 -18t18 -26.5t6.5 -33.5q0 -23 -11 -42t-30.5 -30.5t-42.5 -11.5z" />
    <glyph glyph-name="uniE602" unicode="&#xe602;" 
d="M828 -133h-631q-44 0 -75 31t-31 75v157q0 44 31 75t75 31h52v368q0 44 31 75t74 31h474q44 0 75 -31t31 -75v-631q0 -44 -31 -75t-75 -31zM249 -27v210h-52q-22 0 -37.5 -15.5t-15.5 -37.5v-157q0 -22 15.5 -37.5t37.5 -15.5h67q-15 25 -15 53zM881 604q0 22 -15.5 37.5
t-37.5 15.5h-474q-21 0 -36.5 -15.5t-15.5 -37.5v-631q0 -22 15.5 -37.5t36.5 -15.5h474q9 0 17 2.5t14.5 7.5t11.5 11.5t7.5 14.5t2.5 17v631zM802 -27h-421q-11 0 -19 7.5t-8 18.5t8 18.5t19 7.5h421q7 0 13 -3.5t9.5 -9.5t3.5 -13q0 -11 -7.5 -18.5t-18.5 -7.5zM802 78
h-421q-11 0 -19 7.5t-8 18.5t8 18.5t19 7.5h421q7 0 13 -3.5t9.5 -9.5t3.5 -13q0 -11 -7.5 -18.5t-18.5 -7.5zM776 236h-369q-14 0 -26 7t-19.5 19t-7.5 26v106q0 21 15.5 36.5t37.5 15.5h369q21 0 36.5 -15.5t15.5 -36.5v-106q0 -21 -15.5 -36.5t-36.5 -15.5zM776 394h-369
v-106h369v106zM802 552h-421q-11 0 -19 7.5t-8 18.5t8 18.5t19 7.5h421q7 0 13 -3.5t9.5 -9.5t3.5 -13q0 -19 -18 -25q-5 -1 -8 -1z" />
    <glyph glyph-name="uniE603" unicode="&#xe603;" 
d="M744 714q-51 0 -98.5 -19t-84.5 -54l-49 -49l-49 48q-37 36 -84 55t-99 19q-109 0 -186.5 -78t-77.5 -187q0 -103 79 -189l327 -331q43 -43 90 -43t90 43l327 331l3 3q19 24 29 38t23 38t18.5 51t5.5 59q0 109 -77.5 187t-186.5 78zM744 714z" />
    <glyph glyph-name="uniE604" unicode="&#xe604;" 
d="M744 714q-45 0 -98 -22t-85.5 -44t-62.5 -47l-22 21q-21 22 -28 27.5t-30 22t-39.5 23t-43.5 13t-55 6.5q-109 0 -186.5 -78t-77.5 -187q0 -32 5.5 -59t18.5 -51t23 -38t29 -38l330 -334q43 -43 90 -43t90 43l328 332q78 85 78 188q0 109 -77.5 187t-186.5 78zM882 307
l-327 -331q-24 -24 -43 -24q-20 1 -43 24l-326 329q-34 43 -47.5 71.5t-13.5 72.5q0 32 10 62.5t28.5 55t42.5 42.5t54.5 28.5t62.5 10.5q33 0 67 -16t55.5 -34t46 -40.5t31.5 -27.5q11 -8 22.5 -7t23.5 12l14 12q7 6 22 18t29.5 22t34.5 21.5t38.5 20t39.5 14t40 5.5
q82 0 140 -58.5t58 -140.5q0 -77 -60 -142z" />
    <glyph glyph-name="uniE605" unicode="&#xe605;" 
d="M821 177h-410l-113 -112h607q4 0 7 -1l6 -2l4 -4q3 -1 5 -3.5t3.5 -5.5t2 -6t0.5 -6q0 -12 -8 -20.5t-20 -8.5h-674q-4 0 -7.5 1.5t-6.5 3.5h-1h-1l-2 2l-1 1l-2 2q-1 2 -2.5 3.5t-1.5 3.5q-1 0 -1 1v1q-2 4 -2 8v1v2l2 7l1 4l1 1v2l3 3l1 1l2 2l133 132l-82 493h-146
q-7 0 -13.5 3.5t-10.5 10t-4 14.5q0 12 8.5 20t19.5 8h169q21 0 27 -20v-2l2 -2l23 -144h482q47 0 79.5 -33t32.5 -80v-169q0 -46 -32.5 -79t-79.5 -33zM877 458q0 23 -16.5 39.5t-39.5 16.5h-472l46 -281q6 1 11 0h415q23 0 39.5 16.5t16.5 39.5v169zM315.5 -48
q11.5 0 21.5 -4.5t17.5 -12t12 -18t4.5 -21.5q0 -23 -16.5 -39.5t-39.5 -16.5t-39.5 16.5t-16.5 39.5q0 11 4.5 21.5t12 18t18 12t22 4.5zM821 -48q15 0 28 -7.5t20.5 -20.5t7.5 -28q0 -23 -16.5 -39.5t-39.5 -16.5t-39.5 16.5t-16.5 39.5t16.5 39.5t39.5 16.5z" />
    <glyph glyph-name="uniE606" unicode="&#xe606;" 
d="M958 267l-2 -4q-1 -2 -3.5 -5.5t-5.5 -6.5t-7 -6t-9 -5.5t-11.5 -4t-13.5 -2.5v-1h-56v-281q0 -46 -33 -79t-79 -33h-113v281q0 35 -31 50q-13 6 -25 6h-112q-16 0 -28.5 -7.5t-20 -20.5t-7.5 -28v-281h-113q-46 0 -79 33t-33 79v225v0v56h-55h1v1q-41 2 -55 34
q-4 9 -4.5 19.5t6 28t22.5 34.5l342 355q15 16 36 25t43 9q16 0 30 -4t27 -11.5t23 -18.5l341 -355q17 -17 23.5 -34.5t6 -28t-4.5 -19.5zM892 310l-341 355q-17 17 -38 17q-4 0 -8.5 -1t-8.5 -2.5t-8 -3.5t-7.5 -4.5t-6.5 -5.5l-341 -355q-1 -2 -11 -18q1 0 2 -2l1 -2h51v0
h2q23 0 39.5 -16t16.5 -40v-2l-2 -4v-2v-273q0 -15 7.5 -28t20.5 -20.5t28 -7.5h56v225q0 46 33 79t80 33h112q47 0 79.5 -33t32.5 -79v-225h57q23 0 39.5 16.5t16.5 39.5v281q0 16 7.5 28.5t20.5 20t28 7.5h50l1 2q1 2 2 2q-10 16 -11 18z" />
    <glyph glyph-name="uniE607" unicode="&#xe607;" 
d="M950 -120q4 -7 4 -13q0 -12 -8.5 -20t-20 -8t-20 8t-8.5 20q-19 88 -74 158t-136.5 110.5t-174.5 40.5q-140 0 -247.5 -87.5t-136.5 -221.5h-1q0 -6 -2 -11t-6 -9t-9 -6t-11 -2q-11 0 -19.5 8t-8.5 20q0 6 4 13q26 118 107.5 207t195.5 125q-44 24 -76.5 60.5t-51.5 84.5
t-19 100q0 117 82.5 199t198.5 82q46 0 89 -14t77.5 -40t60.5 -60.5t40.5 -77.5t14.5 -89q0 -52 -19 -100t-51.5 -84.5t-76.5 -60.5q114 -36 195.5 -125t107.5 -207zM737 457q0 93 -65.5 159t-159 66t-159 -66t-65.5 -159t65.5 -159t158.5 -66q101 0 168 76q57 64 57 149z
" />
    <glyph glyph-name="uniE608" unicode="&#xe608;" 
d="M286 435q-23 0 -39.5 -17t-16.5 -41t16.5 -41t40 -17t39.5 17t16 41q0 16 -7.5 29t-20 21t-28.5 8zM511 435q-23 0 -39.5 -17t-16.5 -41q0 -16 7.5 -29.5t20.5 -21t28 -7.5q23 0 39.5 17t16.5 41q0 16 -7.5 29t-20.5 21t-28 8zM736 435q-24 0 -40.5 -17t-16.5 -41
t16.5 -41t40.5 -17q9 0 17.5 2.5t15.5 8t12 13t8 16t3 18.5q0 37 -33 53q-11 5 -23 5zM848 726h-674q-15 0 -29.5 -4t-27 -11.5t-23 -18.5t-17.5 -23.5t-11 -27.5t-4 -31v-437q0 -49 34 -86.5t81 -37.5h171q13 -14 51.5 -54t70.5 -73l31 -32q10 -11 20 0q90 102 149 159h175
q47 0 81 37.5t34 86.5v437q0 31 -15 58t-41 42.5t-56 15.5zM904 173q0 -16 -8 -31.5t-21.5 -25t-29.5 -9.5h-172q-3 0 -6.5 -1t-6.5 -2t-6 -2.5t-6 -3.5t-5 -3.5t-4 -3.5l-3 -3l-2 -2v-1l-121 -125l-121 125q-23 22 -43 22h-172q-24 0 -41.5 20.5t-17.5 45.5v437
q0 12 4.5 22.5t12 18.5t18 12.5t21.5 4.5h674q5 0 9.5 -0.5t8.5 -2t8 -4t7.5 -5t6.5 -5.5t5.5 -6.5t4.5 -7.5t3.5 -8.5t2 -9t0.5 -9.5v-437z" />
    <glyph glyph-name="uniE609" unicode="&#xe609;" 
d="M847 247v-1v-1v-224v-112q0 -23 -16.5 -39.5t-39.5 -16.5h-56q-11 0 -21.5 4.5t-18 12t-12 18t-4.5 21.5v112v56h-112v-56v-112q0 -23 -16 -39.5t-39 -16.5h-56h-224q-12 0 -22 4.5t-17.5 12t-12 18t-4.5 21.5v336v1v1q-48 10 -80 48.5t-32 88.5q0 6 1 9l112 333v1
q3 9 10 15t17 6h615q3 0 5.5 -0.5t5 -1.5t4.5 -2.5t4 -3.5t3.5 -4t2.5 -4.5t2 -4.5v-1l112 -333q1 -3 1 -9q0 -50 -32 -88.5t-80 -48.5zM232 -91h56h112h112v168q0 23 16 39.5t39 16.5h112q15 0 28 -7.5t20.5 -20.5t7.5 -28v-168h56v168v56v115q-52 11 -84 53
q-19 -26 -48.5 -41t-63.5 -15q-46 0 -84 28q-18 -13 -39 -20.5t-44 -7.5t-44 7t-38 19.5t-30 29.5q-10 -13 -23 -24t-28.5 -18.5t-32.5 -10.5v-339zM799 692h-575l-104 -309q1 -35 25.5 -59t58.5 -24q35 0 59.5 25t24.5 59q0 12 8 20t19.5 8t20 -8t8.5 -20q0 -34 24.5 -59
t59 -25t59.5 25t25 59q0 -34 24.5 -59t59 -25t59 25t24.5 59q0 12 8.5 20t20 8t19.5 -8t8 -20q0 -34 24.5 -59t59.5 -25q23 0 42 11t30 30t12 42z" />
    <glyph glyph-name="uniE60A" unicode="&#xe60a;" 
d="M400 245h-278q-16 0 -28.5 -7.5t-20 -20.5t-7.5 -28v-279q0 -23 16.5 -39t39.5 -16h278q24 0 40 16t16 39v279q0 15 -7.5 28t-20 20.5t-28.5 7.5zM400 -62q0 -7 -3.5 -13.5t-10 -10.5t-13.5 -4h-223q-5 0 -9.5 1.5t-7.5 4t-6 6t-4 8t-1 8.5v223q0 8 3.5 14.5t10 10
t14.5 3.5h223q11 0 19 -8t8 -20v-223zM902 747h-278q-16 0 -28.5 -7.5t-20 -20.5t-7.5 -28v-279q0 -23 16 -39.5t40 -16.5h278q9 0 17.5 3t15.5 8t12.5 12t8 15.5t2.5 17.5v279q0 8 -2 15t-5.5 13t-8.5 11.5t-11.5 9t-13.5 5.5t-15 2zM902 440q0 -11 -8 -19.5t-20 -8.5h-223
q-7 0 -13.5 4t-10 10.5t-3.5 13.5v223q0 8 3.5 14.5t10 10t13.5 3.5h223q12 0 20 -8t8 -20v-223zM400 747h-278q-23 0 -39.5 -16.5t-16.5 -39.5v-279q0 -23 16.5 -39.5t39.5 -16.5h278q12 0 22 4.5t17.5 12t12 18t4.5 21.5v279q0 15 -7.5 28t-20 20.5t-28.5 7.5zM400 440
q0 -4 -1 -8.5t-4 -8t-6 -6t-7.5 -4t-8.5 -1.5h-223q-8 0 -14.5 4t-10 10.5t-3.5 13.5v223q0 4 1 7.5t2.5 6.5t4 5.5t5.5 4.5t7 3t8 1h223q11 0 19 -8t8 -20v-223zM902 245h-278q-24 0 -40 -16.5t-16 -39.5v-279q0 -15 7.5 -28t20 -20t28.5 -7h278q23 0 39.5 16t16.5 39v279
q0 23 -16.5 39.5t-39.5 16.5zM902 -62q0 -11 -8 -19.5t-20 -8.5h-223q-11 0 -19 8.5t-8 19.5v223q0 8 3.5 14.5t10 10t13.5 3.5h223q12 0 20 -8t8 -20v-223z" />
    <glyph glyph-name="uniE60B" unicode="&#xe60b;" 
d="M168 148l344 343l358 -358q9 -9 9 -20.5t-8.5 -19.5t-20 -8t-19.5 8l-319 319l-318 -318q-9 -8 -20.5 -8t-19.5 8t-8 19.5t8 20.5z" />
    <glyph glyph-name="uniE60C" unicode="&#xe60c;" 
d="M846 420l-335 -335l-356 357q-8 8 -8 19.5t8 19.5q5 6 12.5 8t14.5 0t12 -8l318 -317l318 318q4 4 9 6.5t10.5 2.5t10.5 -2.5t9 -6.5q9 -8 9 -19.5t-9 -19.5z" />
    <glyph glyph-name="uniE60D" unicode="&#xe60d;" 
d="M706 606l-318 -318l317 -318q9 -8 9 -19.5t-8.5 -19.5t-20 -8t-19.5 8l-14 14l-343 342l358 358q8 8 19.5 8t20 -8t8.5 -19.5t-9 -19.5z" />
    <glyph glyph-name="uniE60E" unicode="&#xe60e;" 
d="M715 287l-357 -356q-5 -6 -12.5 -8t-14.5 0t-13 8q-8 8 -8 19.5t8 19.5l318 317l-319 319q-4 4 -6 9t-2 10.5t2 10.5t6 9q9 9 20.5 9t19.5 -9l23 -23z" />
    <glyph glyph-name="uniE60F" unicode="&#xe60f;" 
d="M903 541h-242q9 6 17 13q64 47 91.5 99t2.5 78t-87 11t-126 -63q-9 -7 -17.5 -14t-16 -14.5t-15.5 -14.5q-23 24 -49 43q-63 48 -125.5 63t-87 -11t3 -78t90.5 -99q4 -3 8.5 -6.5t9.5 -6.5h-242q-12 0 -22.5 -4.5t-18 -12t-12 -17.5t-4.5 -22v-140q0 -23 16.5 -39.5
t40.5 -16.5h28v-309q0 -46 32.5 -79t79.5 -33h505q46 0 79 33t33 79v309h28q23 0 39.5 16.5t16.5 39.5v140q0 15 -7.5 28t-20.5 20.5t-28 7.5zM599 637.5q40 29.5 73.5 44.5t42 6t-14 -36t-62 -56.5t-73.5 -44.5t-42 -6.5t14 36t62 57zM595 485v-308l-85 56l-84 -56v308h169
zM306 688q8 9 42 -6t74 -45q21 -16 48.5 -47.5t19 -40t-45 9t-62.5 37.5q-40 29 -62 56t-14 36zM146 345q-12 0 -20 8t-8 20v84q0 8 3.5 14.5t10 10t14.5 3.5h224v-140h-224zM819 -20q0 -23 -16.5 -39.5t-39.5 -16.5h-505q-15 0 -28 7.5t-20.5 20.5t-7.5 28v309h168v-225
l139 84l142 -84v225h168v-309zM903 373q0 -12 -8 -20t-20 -8h-224v140h224q12 0 20 -8t8 -20v-84z" />
    <glyph glyph-name="uniE610" unicode="&#xe610;" 
d="M687 132h-363q-6 0 -10 -4t-4 -10v-28q0 -6 4 -10t10 -4h363q2 0 4 0.5t4 2t3 3t2 4t1 4.5v28q0 3 -1 5.5t-3 4.5t-4.5 3t-5.5 1zM324 495h112q3 0 6.5 2t5.5 5t2 7v28q0 6 -4.5 10t-9.5 4h-112q-3 0 -5.5 -1t-4.5 -3t-3 -4.5t-1 -5.5v-28q0 -4 2 -7t5 -5t7 -2zM324 355
h112q5 0 9.5 4.5t4.5 9.5v28q0 6 -4.5 10t-9.5 4h-112q-4 0 -7 -2t-5 -5t-2 -7v-28q0 -5 4 -9.5t10 -4.5zM687 272h-363q-4 0 -7 -2t-5 -5.5t-2 -6.5v-28q0 -6 4 -10t10 -4h363q6 0 10 4t4 10v28q0 2 -1 5t-3 4.5t-4.5 3t-5.5 1.5zM645 551h-84q-6 0 -12.5 -1.5t-12 -4.5
t-10.5 -6.5t-8.5 -8.5t-6.5 -10.5t-4.5 -11.5t-1.5 -13v-84q0 -23 16.5 -39.5t39.5 -16.5h84q23 0 39.5 16.5t16.5 39.5v84q0 23 -16.5 39.5t-39.5 16.5zM645 439q0 -11 -8 -19.5t-20 -8.5h-28q-11 0 -19.5 8.5t-8.5 19.5v28q0 12 8.5 20t19.5 8h28q12 0 20 -8t8 -20v-28z
M729 746h-447q-30 0 -56 -15t-41 -40.5t-15 -55.5v-671q0 -46 33 -78.5t79 -32.5h447q46 0 78.5 32.5t32.5 78.5v671q0 22 -8.5 43t-23.5 36t-35.5 23.5t-43.5 8.5zM785 -36q0 -15 -7.5 -28t-20.5 -20.5t-28 -7.5h-447q-23 0 -39.5 16.5t-16.5 39.5v671q0 23 16.5 39
t39.5 16h447q23 0 39.5 -16t16.5 -39v-671z" />
    <glyph glyph-name="uniE611" unicode="&#xe611;" 
d="M690 413h-364q-4 0 -7 -2t-5 -5.5t-2 -6.5v-28q0 -6 4 -10t10 -4h364q3 0 5.5 1t4.5 3t3 4.5t1 5.5v28q0 2 -1 4l-2 4q-1 2 -3 3l-4 2q-2 1 -4 1zM690 273h-364q-3 0 -5.5 -1.5t-4.5 -3t-3 -4.5t-1 -5v-28q0 -6 4 -10t10 -4h364q6 0 10 4t4 10v28q0 3 -2 6.5t-5 5.5t-7 2
zM690 553h-364q-4 0 -7 -2t-5 -5.5t-2 -6.5v-28q0 -6 4 -10t10 -4h364q3 0 5.5 1t4.5 3t3 4.5t1 5.5v28q0 2 -1 4l-2 4q-1 2 -3 3l-4 2q-2 1 -4 1zM732 749h-448q-46 0 -79 -33t-33 -79v-672q0 -47 33 -79.5t79 -32.5h448q46 0 79 32.5t33 79.5v672q0 46 -33 79t-79 33z
M788 -35q0 -24 -16.5 -40t-39.5 -16h-448q-23 0 -39.5 16t-16.5 40v672q0 23 16.5 39.5t39.5 16.5h448q23 0 39.5 -16.5t16.5 -39.5v-672zM690 133h-364q-14 0 -14 -14v-28q0 -6 4 -10t10 -4h364q6 0 10 4t4 10v28q0 5 -4 9.5t-10 4.5z" />
    <glyph glyph-name="uniE612" unicode="&#xe612;" 
d="M330 153h364q2 0 4.5 0.5t3.5 2.5l4 2q1 2 1.5 4.5t0.5 4.5v28q0 6 -4 10t-10 4h-364q-6 0 -10 -4t-4 -10v-28q0 -4 2 -7t5 -5t7 -2zM330 13h364q6 0 10 4t4 10v28q0 14 -14 14h-364q-2 0 -4.5 -1t-4 -2t-3 -3t-2 -4t-0.5 -4v-28q0 -6 4 -10t10 -4zM820 749h-616
q-47 0 -79.5 -33t-32.5 -79v-224q0 -23 8.5 -44t23.5 -36t36 -24t44 -9v-336q0 -46 32.5 -79t79.5 -33h392q46 0 79 33t33 79v336q46 0 79 33t33 80v224q0 46 -33 79t-79 33zM764 -36q0 -23 -16.5 -39.5t-39.5 -16.5h-392q-23 0 -39.5 16.5t-16.5 39.5v336h504v-336z
M876 413q0 -24 -16.5 -40.5t-39.5 -16.5h-616q-15 0 -28 7.5t-20.5 20.5t-7.5 29v224q0 15 7.5 28t20.5 20.5t28 7.5h616q11 0 21.5 -4.5t18 -12t12 -18t4.5 -21.5v-224z" />
    <glyph glyph-name="uniE613" unicode="&#xe613;" 
d="M933 481q0 -4 -0.5 -5.5t-2.5 -4.5l-1 -1l-2 -4q-2 -1 -5 -3q0 -1 -1 -2t-2 -1h-1q-1 -1 -4 -2h-2q-4 -1 -5 -1h-1h-84v-506q0 -47 -33 -80t-80 -33h-394q-46 0 -79 33t-33 80v506h-84h-1q-2 0 -6 1h-1q-3 1 -4 2h-1q-1 0 -2 1t-1 2q-4 2 -5 3t-3 4v1q-2 3 -2 4
q-1 2 -2 6v2v2v1q0 2 1 4v2v1q1 3 1 4q1 0 1 1l56 114q9 18 30 14h192q0 46 33 79t79 33h56q31 0 57 -15t41 -41t15 -56h191h8q3 0 6.5 -1t6.5 -3t5.5 -4.5t4.5 -5.5l56 -114v-1q1 -1 1 -4l1 -1q1 -5 1 -6v-1q0 -1 -0.5 -2t-0.5 -2zM259 -49q0 -23 16.5 -39.5t39.5 -16.5
h394q23 0 39.5 16.5t16.5 39.5v506h-506v-506zM540 682h-56q-23 0 -39.5 -16.5t-16.5 -39.5h169q0 23 -16.5 39.5t-40.5 16.5zM833 569h-642l-27 -56h697zM344 344q11 0 19.5 -8t8.5 -20v-281q0 -8 -4 -14t-10.5 -10t-13.5 -4q-12 0 -20.5 8t-8.5 20v281q0 5 1.5 9t4.5 7.5
t6 6.5t7.5 4t9.5 1zM512.5 344q11.5 0 19.5 -8t8 -20v-281q0 -8 -3.5 -14t-10 -10t-14.5 -4q-4 0 -8.5 1.5t-8 4t-6 6t-4 8t-1.5 8.5v281q0 12 8.5 20t20 8zM681 344q12 0 20 -8t8 -20v-281q0 -8 -3.5 -14t-10 -10t-14.5 -4q-12 0 -20 8t-8 20v281q0 5 1.5 9t4 7.5t6 6.5
t7.5 4t9 1z" />
    <glyph glyph-name="uniE614" unicode="&#xe614;" 
d="M954 -153q-4 -4 -9.5 -6t-10.5 -2t-10.5 2t-9.5 6l-249 248q-104 -89 -236 -89q-75 0 -142.5 29t-116.5 78t-78 117t-29 142q0 100 49 184t133 133t183.5 49t184 -49t133.5 -133t49 -184q0 -133 -90 -238l249 -247q8 -8 8 -20t-8 -20zM738 372q0 84 -41.5 155.5
t-112.5 113t-155 41.5q-51 0 -98 -15.5t-85 -44.5t-67 -67t-44.5 -85t-15.5 -98q0 -128 90.5 -218.5t219.5 -90.5q50 0 97.5 15.5t85.5 44t66.5 66.5t44 85.5t15.5 97.5z" />
    <glyph glyph-name="uniE615" unicode="&#xe615;" 
d="M494 106l-43 -43l-268 267q-8 9 -8.5 21.5t7.5 22.5q9 9 21 9.5t21 -8.5l225 -224l345 345q5 4 10.5 6.5t11.5 3t12 -1.5t11 -7q6 -5 8.5 -12.5t0.5 -15.5t-7 -13z" />
    <glyph glyph-name="uniE616" unicode="&#xe616;" 
d="M736 176l58 -337l-281 171l-282 -171l58 337l-227 227h280l170 336l169 -338h282zM646 345l-134 282l-133 -282h-192l158 -149l-44 -255l210 132l212 -132l-44 251l162 153h-195z" />
    <glyph glyph-name="uniE617" unicode="&#xe617;" 
d="M762 319h-500q-13 0 -22.5 -9t-9.5 -22q0 -8 4.5 -15.5t11.5 -11.5t16 -4h500q7 0 12.5 2.5t10 6.5t7 10t2.5 12q0 13 -9.5 22t-22.5 9z" />
    <glyph glyph-name="uniE618" unicode="&#xe618;" 
d="M762 319h-219v219q0 13 -9 22.5t-22 9.5t-22 -9.5t-9 -22.5v-219h-219q-13 0 -22.5 -9t-9.5 -22q0 -8 4.5 -15.5t11.5 -11.5t16 -4h219v-219q0 -13 9 -22.5t22 -9.5t22 9.5t9 22.5v219h219q13 0 22.5 9t9.5 22q0 9 -4.5 16t-11.5 11t-16 4z" />
    <glyph glyph-name="uniE619" unicode="&#xe619;" horiz-adv-x="1026" 
d="M736 176l59 -339l-282 172l-282 -172l57 339l-226 227h280l171 336l169 -338h282z" />
    <glyph glyph-name="uniE61A" unicode="&#xe61a;" 
d="M846 660h-669q-31 0 -56.5 -15t-40.5 -40.5t-15 -56.5v-502q0 -46 32.5 -78.5t79.5 -32.5h669q30 0 56 15t41 40.5t15 55.5v502q0 47 -33 79.5t-79 32.5zM902 46q0 -15 -7.5 -27.5t-20.5 -20t-28 -7.5h-669q-23 0 -39.5 16t-16.5 39v502q0 12 4.5 22t12 17.5t17.5 12
t22 4.5h669q15 0 28 -7.5t20.5 -20t7.5 -28.5v-502zM802 465h-195q-4 0 -7 -2t-5 -5t-2 -7v-28q0 -6 4 -10t10 -4h195q4 0 7.5 2t5 5t1.5 7v28q0 3 -1 5.5t-3 4.5t-4.5 3t-5.5 1zM468 302q42 38 42 93q0 26 -10 49t-27 40t-40 27t-49 10q-52 0 -88.5 -37t-36.5 -89
q0 -55 41 -93q-46 -27 -79.5 -79.5t-45.5 -120.5h42q17 74 63 121t104 47q17 0 33 -4.5t30.5 -12.5t28 -19t25 -25.5t21.5 -31t17 -35.5t12 -40h42q-12 68 -45 120.5t-80 79.5zM384 325q-29 0 -49.5 20.5t-20.5 49.5q0 19 9.5 35t25.5 25.5t35 9.5q29 0 49.5 -20.5
t20.5 -49.5q0 -9 -2.5 -18.5t-7 -17t-11 -14t-14 -11t-16.5 -7t-19 -2.5zM802 242h-195q-2 0 -4 -1l-4 -2q-2 -1 -3 -3l-2 -4q-1 -2 -1 -4v-28q0 -14 14 -14h195q6 0 10 4t4 10v28q0 3 -1 5.5t-3 4t-4.5 3t-5.5 1.5z" />
    <glyph glyph-name="uniE61B" unicode="&#xe61b;" 
d="M746 448q-8 1 -15 1.5t-16 0.5q-62 0 -117 -30q64 46 142 46q-28 68 -90 110.5t-138 42.5q-81 0 -145.5 -48t-88.5 -123q-91 -12 -152.5 -81t-61.5 -162q0 -102 72 -174t174 -72h13q54 0 92 38t38 92q0 41 -29.5 70.5t-70.5 29.5q-31 0 -53 -22.5t-22 -53.5q0 -17 9 -31
q11 -16 27 -6h1q8 6 19 6q14 0 23.5 -10t9.5 -23.5t-9.5 -23.5t-23.5 -10q-41 0 -69.5 29t-28.5 69q0 49 34.5 83.5t82.5 34.5q59 0 100.5 -41.5t41.5 -100.5q0 -78 -60 -130h154q-60 52 -60 130q0 29 11.5 55t30.5 45t45 30.5t55 11.5q49 0 83.5 -34.5t34.5 -83.5
q0 -40 -29 -69t-69 -29q-10 0 -17.5 4.5t-12 12t-4.5 16.5q0 7 2.5 13.5t7 11t11 7t13.5 2.5q3 0 6.5 -1t6.5 -2t6 -3q16 -10 28 6q4 7 6.5 15t2.5 16q0 31 -22.5 53.5t-53.5 22.5q-41 0 -70.5 -29.5t-29.5 -70.5q0 -35 17.5 -65t47.5 -47.5t65 -17.5h14q101 0 173 72
t72 174q0 107 -79 180q-59 53 -135 63z" />
    <glyph glyph-name="uniE61C" unicode="&#xe61c;" 
d="M901 517l-84 -84v-1t-1 -1l-312 -316q-1 0 -1.5 -2.5t-1.5 -3.5t-3 -2q-2 0 -3 -1l-14 -14l-225 -57l59 221l427 420q33 33 79.5 33t79.5 -33q21 -22 29 -50.5t0 -57.5t-29 -51zM312 88l125 45l-79 79zM443 297q-1 0 -2 -2l-1 -2l-41 -42l78 -79l59 60l220 220l-79 79z
M861 636q-11 11 -25.5 15t-28.5 0t-25 -15l-65 -65l79 -79l65 65q11 11 15 25.5t0 28.5t-15 25zM455 597h-252q-12 0 -22.5 -4.5t-18 -12t-12 -18t-4.5 -22.5v-561q0 -23 16.5 -39.5t40.5 -16.5h561q23 0 39.5 16.5t16.5 39.5v309q0 12 8 20t19.5 8t20 -8t8.5 -20v-309
q0 -46 -33 -79t-79 -33h-561q-47 0 -80 33t-33 79v561q0 47 33 80t80 33h252q8 0 14.5 -4t10 -10.5t3.5 -13.5q0 -12 -8 -20t-20 -8z" />
    <glyph glyph-name="uniE61D" unicode="&#xe61d;" 
d="M849 7q0 -31 -15 -57t-41 -41t-56.5 -15t-56.5 15t-41 41t-15 57h-169q0 -31 -15 -57t-41 -41t-56 -15q-47 0 -79.5 33t-32.5 80q0 29 15 56h-148q-9 -2 -16 0q-6 2 -11 8q-1 0 -3 4q-1 0 -1 1q-1 1 -1 2q-4 7 -4 13q0 7 5 15l52 162q2 62 32 115t80.5 86.5t111.5 40.5
v59q0 30 15 56t41 41t56 15h394q46 0 79 -33t33 -79v-450q0 -46 -33 -79t-79 -33zM736.5 -49q23.5 0 39.5 16t16 39.5t-16 40t-40 16.5q-15 0 -28 -7.5t-20.5 -20.5t-7.5 -28q0 -24 16.5 -40t40 -16zM343 -49q23 0 39.5 16t16.5 40q0 11 -4.5 21.5t-12 18t-18 12t-21.5 4.5
q-23 0 -39.5 -16.5t-16.5 -40t16.5 -39.5t39.5 -16zM315 119q4 0 9 -2q6 1 10.5 1.5t8.5 0.5v112h-177l-36 -112h185zM177 288h166v165q-64 -9 -110 -55t-56 -110zM905 569q0 15 -7.5 28t-20.5 20.5t-28 7.5h-394q-23 0 -39.5 -16.5t-16.5 -39.5v-450q0 -7 4 -17
q10 -7 19 -16t16 -20q10 -3 17 -3h185q14 26 40 41t56.5 15t56 -15t40.5 -41h16q23 0 39.5 16.5t16.5 39.5v450z" />
    <glyph glyph-name="uniE61E" unicode="&#xe61e;" 
d="M721 -147q-98 0 -167.5 69.5t-69.5 168.5q0 64 31.5 119t86.5 87t119.5 32t119.5 -32t86.5 -87t31.5 -119q0 -33 -8.5 -63.5t-23.5 -56.5t-37 -48t-48 -37.5t-57 -24t-64 -8.5zM721.5 273q-75.5 0 -128.5 -53.5t-53 -128.5q0 -37 14 -71t38.5 -58t58 -38.5t70.5 -14.5
q50 0 92 24t66 66t24 92q0 75 -53 128.5t-128.5 53.5zM833 49h-139q-3 0 -6 1t-4.5 3t-2.5 4.5t-1 5.5v28v112q0 3 1.5 6.5t5 5.5t7.5 2h27q6 0 10 -4.5t4 -9.5v-98h98q6 0 10 -4.5t4 -9.5v-28q0 -6 -4 -10t-10 -4zM819 664q0 12 -8 20t-20 8h-643q-12 0 -20 -8t-8 -20v-727
q0 -12 8 -20t20 -8h280v-56h-308q-15 0 -28 7.5t-20.5 20.5t-7.5 28v783q0 24 16.5 40t39.5 16h699q16 0 28.5 -7.5t20 -20t7.5 -28.5v-252h-56v224zM274 133h112q5 0 9.5 -4.5t4.5 -9.5v-28q0 -6 -4.5 -10t-9.5 -4h-112q-3 0 -5.5 1t-4.5 3t-3 4.5t-1 5.5v28q0 5 4 9.5
t10 4.5zM260 482v28q0 3 1 5.5t3 4.5t4.5 3t5.5 1h420q5 0 9 -4t4 -10v-28q0 -5 -4 -9.5t-9 -4.5h-420q-6 0 -10 4.5t-4 9.5zM260 287v28q0 2 1 5t3 4.5t4.5 3t5.5 1.5h196q14 0 14 -14v-28q0 -3 -1.5 -5.5t-3 -4.5t-4.5 -3t-5 -1h-196q-6 0 -10 4t-4 10z" />
    <glyph glyph-name="uniE61F" unicode="&#xe61f;" 
d="M942 290l-219 110l219 110q10 5 13 11t0 12.5t-13 10.5l-398 199q-7 4 -16 6t-18.5 2t-18.5 -2t-16 -6l-398 -199q-3 -1 -5.5 -3t-4.5 -4t-3 -4t-1 -4v-4q0 -2 1 -4t3 -4t4.5 -4t5.5 -3l220 -110l-220 -110q-9 -4 -12.5 -10.5t0 -13t12.5 -10.5l163 -82l-163 -81
q-14 -8 -14 -18t14 -17l398 -199q14 -7 34.5 -7t34.5 7l398 199q10 5 13 11t0 12.5t-13 11.5l-163 81l163 82q15 7 15 17t-15 17zM164 518q-8 4 -8 9t8 9l328 164q18 9 35 0l329 -164q17 -9 0 -18l-329 -164q-17 -9 -35 0zM856 84q5 -2 6.5 -5.5t0 -6.5t-6.5 -5l-329 -165
q-17 -8 -35 0l-328 165q-8 3 -8 8t8 9l128 64l183 -91q14 -8 34.5 -8t34.5 8l183 91zM856 264l-329 -164q-17 -9 -35 0l-328 164q-8 4 -8 9t8 9l184 92l127 -63q5 -3 10.5 -4.5t11.5 -2t12.5 -0.5t12.5 0.5t12 2t10 4.5l127 63l185 -92q14 -8 3 -16q-1 -1 -3 -2z" />
    <glyph glyph-name="uniE620" unicode="&#xe620;" 
d="M871 233q-33 -57 -105.5 -80t-167 -8.5t-189.5 63.5l-171 -296h556q9 0 15 -4t6 -11v-29q0 -7 -6 -11t-15 -4h-584h-4q-2 0 -5 1q-7 -4 -14 -1l-25 15q-13 8 -6 21l202 349q-138 88 -199 207t-11 205q43 74 150 90.5t230 -28.5l-32 -56q-98 35 -180 25t-112 -63
q-39 -68 22.5 -168t188 -173t244 -76.5t157.5 64.5q18 34 13 75.5t-32 87t-72 88.5l32 56q90 -84 121.5 -175.5t-7.5 -163.5zM551 453q-8 -13 -21 -6l-26 15q-13 8 -5 21l149 258q3 5 9 6.5t11 -1.5l26 -15q13 -7 6 -20z" />
    <glyph glyph-name="uniE621" unicode="&#xe621;" 
d="M904 -7h-546h-28h-210q-23 0 -39.5 16t-16.5 40v56v56v55q23 0 42.5 11.5t30.5 31t11 41.5q0 35 -24.5 59.5t-59.5 24.5v56v56v56q0 24 16.5 40t39.5 16h210h28h546q11 0 21.5 -4.5t18 -12t12 -17.5t4.5 -22v-84v-28v-56q-35 0 -59.5 -24.5t-24.5 -59t24.5 -59.5
t59.5 -25v-55v-84v-28q0 -16 -7.5 -28.5t-20.5 -20t-28 -7.5zM904 172q-38 17 -61 51.5t-23 77t23 77t61 51.5v95q0 8 -4 14.5t-10.5 10t-13.5 3.5h-504v-42q0 -5 -4 -9.5t-10 -4.5h-28q-6 0 -10 4.5t-4 9.5v42h-168q-8 0 -14 -3.5t-10 -10t-4 -14.5v-95q38 -17 61 -51.5
t23 -77t-23 -77t-61 -51.5v-95q0 -12 8.5 -20t19.5 -8h168v42q0 3 2 6.5t5 5.5t7 2h28q6 0 10 -4.5t4 -9.5v-42h504q7 0 13.5 3.5t10.5 10t4 14.5v95zM358 161h-28q-4 0 -7 1.5t-5 5t-2 6.5v84q0 4 2 7.5t5 5t7 1.5h28q2 0 4.5 -0.5t3.5 -1.5l4 -4q1 -1 1.5 -3t0.5 -5v-84
q0 -3 -2 -6.5t-5 -5t-7 -1.5zM358 328h-28q-14 0 -14 14v84q0 4 2 7.5t5 5t7 1.5h28q6 0 10 -4t4 -10v-84q0 -3 -2 -6.5t-5 -5.5t-7 -2z" />
    <glyph glyph-name="uniE622" unicode="&#xe622;" 
d="M556 288l229 231q9 9 8.5 21.5t-10.5 20.5q-6 6 -14.5 7.5t-17 -0.5t-13.5 -8l-227 -228l-230 228q-6 6 -13.5 8t-15.5 -0.5t-13 -9.5q-9 -10 -8.5 -23t9.5 -22l227 -226l-227 -229q-9 -9 -8.5 -21.5t10.5 -20.5q6 -6 14.5 -7.5t16.5 0.5t14 8l225 226l230 -228
q9 -9 21.5 -8.5t21 10.5t8 23t-9.5 22z" />
    <glyph glyph-name="uniE623" unicode="&#xe623;" 
d="M376 709q-11 9 -23.5 16.5t-25.5 12.5t-28 8t-30 3q-34 0 -65 -13.5t-53.5 -36t-36 -53.5t-13.5 -65q0 -23 6 -44.5t18 -40.5q44 72 108.5 126.5t142.5 86.5zM507 665q-110 0 -203.5 -54.5t-148 -148t-54.5 -203.5t54.5 -203.5t148 -148t203.5 -54.5t203.5 54.5t148 148
t54.5 203.5q0 83 -32.5 158t-86.5 129t-129.5 86.5t-157.5 32.5zM507 -63q-88 0 -162 43t-117 117.5t-43 161.5t43 161.5t117 117.5t161.5 43t161.5 -43t117.5 -117.5t43.5 -161.5q0 -65 -25.5 -125t-69 -103t-103 -68.5t-124.5 -25.5zM888 497q12 19 18.5 40.5t6.5 43.5
q0 70 -50.5 119t-120.5 49q-31 0 -58.5 -10.5t-50.5 -29.5q162 -66 255 -212zM661 273h-112v196q0 11 -8.5 19.5t-19.5 8.5h-28q-12 0 -20 -8.5t-8 -19.5v-252q0 -12 8 -20t20 -8h168q7 0 13.5 4t10.5 10t4 14v28q0 5 -1.5 9t-4 7.5t-6 6t-8 4t-8.5 1.5z" />
    <glyph glyph-name="uniE624" unicode="&#xe624;" 
d="M959 20q0 -31 -15 -56.5t-40.5 -40.5t-56.5 -15h-671q-46 0 -79 32.5t-33 79.5v335q0 8 1 15.5t3 14.5t5 13.5t6 12.5q24 73 123 260q11 17 21.5 27.5t23 14.5t20.5 5t24 1h442q15 0 23 -1t21 -5.5t24 -16t23 -29.5q44 -83 73.5 -147t38.5 -86l8 -23q15 -26 15 -56v-335z
M332 663q-16 0 -25 -1.5t-22.5 -10.5t-24.5 -27q-28 -53 -83 -157h195l39 196h-79zM546 663h-79l-39 -196h161zM595 411h-167v-93q0 -19 12 -33t30 -14h84q17 0 29 14t12 33v93zM765 620q-6 10 -12.5 18t-13 12.5t-11.5 7t-12.5 3.5t-12 1.5t-12.5 0.5h-83l43 -196h195
q-15 27 -46 87t-35 66zM903 355q0 23 -16.5 39.5t-39.5 16.5h-196v-126q0 -29 -20.5 -49.5t-49.5 -20.5h-139q-29 0 -49.5 20.5t-20.5 49.5v126h-196q-23 0 -39.5 -16.5t-16.5 -39.5v-335q0 -12 4.5 -22.5t12 -18t17.5 -11.5t22 -4h671q12 0 22 4t17.5 11.5t12 18t4.5 22.5
v335zM805 20h-251q-4 0 -7.5 1.5t-5 5t-1.5 7.5v27q0 4 1.5 7.5t5 5t7.5 1.5h251q4 0 7.5 -1.5t5 -5t1.5 -7.5v-27q0 -3 -0.5 -5t-2.5 -3l-2 -4q-2 -1 -4 -1.5t-5 -0.5zM805 103h-140q-5 0 -9.5 4.5t-4.5 9.5v28q0 4 2 7.5t5.5 5t6.5 1.5h140q6 0 10 -4t4 -10v-28
q0 -5 -4 -9.5t-10 -4.5z" />
    <glyph glyph-name="uniE625" unicode="&#xe625;" 
d="M764 244h56q30 0 56 15t41 41t15 56v84q7 55 -32 93l-99 99q-20 20 -46.5 28t-53.5 2.5t-49 -22.5v-284q0 -18 5.5 -35t16 -31t24.5 -24t31 -16t35 -6zM708 606q32 9 54 -13l99 -99q10 -11 13.5 -25.5t-0.5 -28.5h2v-84q0 -15 -7.5 -28t-20.5 -20.5t-28 -7.5h-56
q-23 0 -39.5 16.5t-16.5 39.5v250zM177 244h307q47 0 79.5 33t32.5 79v280q0 18 -5.5 35t-16 31t-24 24.5t-30.5 16t-36 5.5h-307q-47 0 -79.5 -33t-32.5 -79v-280q0 -46 32.5 -79t79.5 -33zM121 636q0 23 16 39.5t40 16.5h307q15 0 28 -7.5t20.5 -20.5t7.5 -28v-280
q0 -23 -16.5 -39.5t-39.5 -16.5h-307q-24 0 -40 16.5t-16 39.5v280zM876 216h-727q-23 0 -42.5 -11t-30.5 -30.5t-11 -42.5v-84q0 -34 24.5 -58.5t59.5 -24.5h30q5 -24 17.5 -44.5t30.5 -35.5t41 -23.5t48 -8.5q51 0 89.5 31.5t48.5 80.5h117q10 -49 48.5 -80.5t88.5 -31.5
t88.5 31.5t48.5 80.5h31q17 0 32.5 6.5t27 17.5t18 26.5t6.5 32.5v84q0 35 -24.5 59.5t-59.5 24.5zM316.5 -91q-34.5 0 -59.5 24.5t-25 59.5q0 22 11.5 41.5t31 30.5t41.5 11q35 0 59.5 -24.5t24.5 -59t-24.5 -59t-59 -24.5zM708 -91q-35 0 -59.5 24.5t-24.5 59t24.5 59
t59.5 24.5q23 0 42.5 -11t30.5 -30.5t11 -41.5q0 -49 -42 -73q-20 -11 -42 -11zM904 48q0 -11 -8 -19t-20 -8h-31q-10 48 -48.5 79.5t-88.5 31.5t-88.5 -31.5t-48.5 -79.5h-117q-10 48 -48.5 79.5t-89 31.5t-89 -31.5t-48.5 -79.5h-30q-12 0 -20 8t-8 19v84q0 12 8 20t20 8
h727q6 0 11 -2t8.5 -6t6 -9t2.5 -11v-84z" />
    <glyph glyph-name="uniE626" unicode="&#xe626;" 
d="M915 536q-27 2 -53.5 7t-49.5 13q-8 2 -15.5 5t-15.5 6q-34 10 -83 38l-1 1q-3 1 -6 3t-6 3.5t-6 3.5l-6 4q-5 3 -10.5 6.5t-10.5 7t-11 7.5l-1 1q-12 8 -23 16q-5 3 -14 10l-1 1q-1 1 -5 4t-6 5q-43 33 -80 72q-5 -6 -11 -11.5t-11.5 -11t-11 -10.5t-11.5 -10t-11.5 -10
t-11.5 -10t-12 -9q-2 -2 -6 -5q-3 -3 -5 -4q-11 -8 -15 -11q-5 -4 -11 -8l-12 -8l-1 -1q-18 -12 -32 -21q-12 -8 -24 -14l-1 -1q-49 -28 -84 -38q-15 -6 -30 -11q-48 -16 -103 -20q0 -9 3 -64h1q9 -134 50 -253q0 -1 1 -4.5t2 -5.5q0 -1 0.5 -2.5t1.5 -1.5
q47 -129 125.5 -218t176.5 -123q22 -8 43 -12q10 2 20.5 5t22.5 7q65 23 122.5 70.5t103 116t76.5 154.5q1 0 1.5 1.5t0.5 2.5q1 2 2 5.5t1 4.5q41 119 50 253h1q2 54 3 64zM513 -85l-1 1h-1h-1q0 -1 -1 -1q-136 43 -227.5 198.5t-100.5 369.5q168 38 327 177q0 -1 1 -2
t2 -1l1 1q2 1 2 2q159 -139 327 -177q-9 -214 -100.5 -369.5t-227.5 -198.5zM365 349q-8 8 -19 8t-19 -8l-12 -12q-8 -8 -8 -19t8 -19l138 -135v-1l13 -13q5 -5 12 -6.5t14 0t12 6.5l239 236q5 6 7 12.5t0 13.5t-7 12l-13 12q-7 8 -18.5 8t-18.5 -8l-208 -205z" />
    <glyph glyph-name="uniE627" unicode="&#xe627;" 
d="M126 346.5q0 93.5 46 172.5t125 125t172 46q70 0 134 -27.5t110 -73.5t73 -109.5t27 -133.5q0 -139 -97 -239q-97 -99 -235 -104h-12q-93 0 -172 46t-125 125t-46 172.5zM723 33l182 -183l53 53l-182 182q97 113 97 261q0 110 -54 203t-147 147t-202.5 54t-202.5 -54
t-147 -147t-54 -202.5t54 -202.5t147 -147t202 -54q143 0 254 90z" />
    <glyph glyph-name="uniE628" unicode="&#xe628;" 
d="M907 289q8 7 15 13.5t12 12.5t8.5 11t5.5 9.5t2 7.5q0 9 -14 0t-50.5 -34.5t-69.5 -44.5q-42 -23 -87 -40.5t-102.5 -29.5t-113.5 -12q-163 0 -328 93q-29 16 -62.5 39t-46 30t-12.5 -1q0 -13 22.5 -36.5t60.5 -48.5l-57 -77l22 -14l57 77q34 -18 67 -32.5t79 -30.5
l-45 -78l22 -14l51 83q85 -22 157 -25v-103h26v104q75 1 167 29l46 -83l25 13l-45 79q95 33 167 87l50 -66l21 16zM341 173z" />
    <glyph glyph-name="uniE629" unicode="&#xe629;" 
d="M776 -162h-523q-28 0 -48.5 20.5t-20.5 49.5v566q0 11 7.5 18.5t18 7.5t18 -7.5t7.5 -18.5v-566q0 -5 2.5 -9.5t6.5 -6.5t9 -2h523q8 0 13 5t5 13v566q0 11 7.5 18.5t18.5 7.5q4 0 8 -1.5t7 -3.5t5.5 -5.5t4 -7.5t1.5 -8v-566q0 -19 -9.5 -35t-25.5 -25.5t-35 -9.5z
M903 623h-182q-11 0 -21.5 6.5t-15.5 16.5l-32 64h-270l-32 -64q-3 -6 -9 -11.5t-13.5 -8.5t-14.5 -3h-190q-11 0 -18.5 7.5t-7.5 18t7.5 18t18.5 7.5h184l32 64q5 10 15.5 16.5t22.5 6.5h280q12 0 22.5 -6.5t15.5 -16.5l32 -64h176q10 0 17.5 -7.5t7.5 -18t-7.5 -18
t-17.5 -7.5zM384 13q-11 0 -18.5 7.5t-7.5 17.5v436q0 7 3.5 13t9.5 9.5t13 3.5q11 0 18.5 -7.5t7.5 -18.5v-436q0 -10 -7.5 -17.5t-18.5 -7.5zM645.5 13q-10.5 0 -18 7.5t-7.5 17.5v436q0 7 3.5 13t9.5 9.5t13 3.5q10 0 17.5 -7.5t7.5 -18.5v-436q0 -10 -7.5 -17.5
t-18 -7.5z" />
    <glyph glyph-name="uniE62A" unicode="&#xe62a;" 
d="M508 435q-70 0 -139.5 -16.5t-122.5 -41t-94.5 -52t-63.5 -50.5t-22 -35q0 -17 35.5 -48.5t92.5 -64.5t142.5 -57t171 -24t171 24.5t142.5 58t92.5 64.5t35.5 47q0 10 -16 28t-43.5 39.5t-69.5 44t-89 41t-106 30.5t-117 12zM508 71q-78 0 -155 21t-128 50t-82.5 56
t-31.5 42q0 9 14.5 24.5t39 34t62 38t79.5 35.5t95.5 26.5t106.5 10.5q32 0 65 -4t62 -10.5t57 -15.5t52 -20t46 -22.5t40 -23t32.5 -22.5t24 -20.5t14.5 -17.5t5 -13q0 -10 -19.5 -30t-57 -44t-85 -45.5t-110.5 -35.5t-126 -14zM495 409q-35 0 -66 -13.5t-54 -36t-36 -53.5
t-13 -66q0 -70 49.5 -119t119.5 -49t119.5 49t49.5 119t-49.5 119.5t-119.5 49.5zM495 97q-39 0 -72 19t-52 52t-19 72q0 59 41.5 101t101 42t101.5 -42t42 -101t-42 -101t-101 -42zM81 428l21 14l52 -78l-21 -14zM245 510l22 14l52 -78l-22 -14zM714 438l22 -15l53 82
l-22 15zM873 360l19 -19l66 72l-19 18zM495 565h26v-104h-26v104z" />
    <glyph glyph-name="uniE62B" unicode="&#xe62b;" 
d="M481.5 748q-97.5 0 -186 -37.5t-152.5 -101.5t-102 -153t-38 -186t38 -185.5t102 -152.5t152.5 -102t186 -38t186 38t152.5 102t102 152.5t38 185.5t-38 186t-102 153t-152.5 101.5t-186 37.5zM683 69q-10 -10 -24 -10t-24 10l-153 153l-154 -154q-10 -10 -24 -10t-24 10
t-10 24t10 24l153 154l-153 154q-10 10 -10 24t10 24t24 10t24 -10l153 -154l154 154q10 10 24 10t24 -10t10 -24t-10 -24l-153 -154l153 -153q10 -10 10 -24t-10 -24z" />
    <glyph glyph-name="uniE62C" unicode="&#xe62c;" 
d="M512 343q9 0 16 -6.5t7 -15.5t-7 -15.5t-16 -6.5q-6 0 -11.5 3t-8.5 8t-3 11q0 9 7 15.5t16 6.5zM431 168l17 41q-28 16 -45 44.5t-17 61.5q0 50 36.5 86t88.5 36q35 0 63.5 -16.5t45.5 -44.5t17 -61q0 -19 -6 -37t-16 -32.5t-24.5 -26t-31.5 -17.5l18 -41q31 12 55 35
t37.5 54t13.5 65q0 69 -50.5 117.5t-121.5 48.5q-46 0 -85.5 -22t-62.5 -60.5t-23 -83.5q0 -47 25 -86.5t66 -60.5zM511 747q-72 0 -140 -21.5t-122.5 -61.5t-96 -93.5t-64 -119.5t-22.5 -136q0 -131 73.5 -238t191.5 -158l17 41q-106 47 -171 142.5t-65 212.5
q0 79 31.5 150.5t85 123.5t127.5 83t155 31q66 0 126.5 -19.5t110 -55.5t86.5 -84t57 -107t20 -122q0 -119 -67.5 -216t-175.5 -142l18 -40q121 50 195.5 158t74.5 240q0 88 -35 168t-94.5 138t-142 92t-173.5 34zM381 43l16 40q-67 32 -108.5 94t-41.5 138q0 69 35.5 128.5
t96.5 93.5t132 34q110 0 187.5 -75t77.5 -181q0 -79 -45 -143t-117 -94l18 -39q84 34 136 109t52 167q0 124 -90.5 211.5t-218 87.5t-218 -87.5t-90.5 -211.5q0 -89 49 -162t129 -110z" />
    <glyph glyph-name="uniE62D" unicode="&#xe62d;" 
d="M605 270q0 3 -3 9.5t-11 16.5t-20.5 18t-34.5 13.5t-50 5.5q-38 -4 -65 -15.5t-38.5 -26t-16 -26t-4.5 -21.5q2 -23 16.5 -39.5t36 -23t39.5 -9t35 -1.5q32 3 55.5 13t35 21t17.5 26t7 22.5t1 16.5zM470 207q-10 -1 -18 0.5t-13.5 4.5t-10 6.5t-7 8t-3.5 7.5t-1 6
q0 4 0.5 8t2.5 9.5t5.5 10t9 9t14.5 7.5t20 4q40 -2 45 -33q0 -1 0.5 -2.5t0 -5t-1.5 -7t-2.5 -7.5t-5 -7.5t-8 -7t-11.5 -6.5t-16 -5zM528 765q-52 0 -102.5 -12t-94.5 -34t-82.5 -52.5t-69 -69t-53 -82.5t-34 -94t-11.5 -102q0 -91 35.5 -173.5t95 -142.5t142.5 -95
t174 -35t173.5 35t142.5 95t95.5 142.5t35.5 173t-35.5 173.5t-95.5 142.5t-142.5 95t-173.5 35.5zM674 261q-1 -13 -9.5 -29.5t-27 -37t-56 -35.5t-88.5 -19q-16 -1 -39.5 3t-51 14t-49.5 31t-29 50q-3 3 -1.5 16.5t4.5 28t15.5 36t32.5 42.5q43 41 70.5 56.5t55.5 11.5
q25 -5 22 -39q-5 -13 -3.5 -18.5t11.5 -2.5q57 24 86 2q3 -4 4.5 -10t1 -11.5t-1.5 -10t-3 -7.5l-1 -4v-2v-2q0 -1 1 -3t4 -3t7 -2q9 -2 19.5 -9.5t18.5 -20.5t7 -25zM675 368q-1 -3 -3.5 -5.5t-5 -3t-5.5 -0.5q-2 0 -5 1t-5.5 5t-2.5 9q0 6 -5 14.5t-16 15.5t-24 9
q-9 5 -8 15q2 14 21 10q5 0 11.5 -3t12 -7t11 -8.5t8.5 -8.5q19 -27 16 -43zM733 371q0 -4 -3.5 -7t-9.5 -4.5t-10 4t-5 14.5q0 9 -2 17.5t-8.5 23t-16.5 23.5q-31 28 -68 27q-5 -1 -9.5 4.5t-3.5 12.5q0 7 5.5 9.5t17.5 1.5q48 -4 82 -41q14 -15 22 -35.5t9 -32.5t0 -17z
" />
    <glyph glyph-name="uniE62E" unicode="&#xe62e;" 
d="M509 412q-8 0 -13.5 -5.5t-5.5 -13.5q0 -4 1.5 -8t4 -6.5t6 -4t7.5 -1.5q3 0 5.5 0.5t4.5 2t4 3.5t3 4t2 4.5t1 5.5q0 5 -2.5 9.5t-7 7t-10.5 2.5zM401 412q-8 0 -14 -5.5t-6 -13.5q0 -4 1.5 -8t4.5 -6.5t6.5 -4t7.5 -1.5q8 0 13.5 6t5.5 14q-4 16 -19 19zM562 301
q-4 0 -8 -2t-6.5 -6t-2.5 -9q0 -3 1.5 -6.5t3.5 -6t5.5 -3.5t6.5 -1q7 0 12.5 5t5.5 12q0 4 -1.5 7t-4 5.5t-5.5 3.5t-7 1zM511 746q-61 0 -118.5 -16t-106.5 -45t-90.5 -70t-70 -89.5t-44.5 -106.5t-16 -119q0 -90 35 -172.5t95 -142t142.5 -95t173.5 -35.5t173.5 35.5
t142.5 95t95 142t35 173t-35 173t-95 142t-142.5 95t-173.5 35.5zM396 223l-52 -27q1 3 2.5 8.5t5.5 17.5t7 20q0 1 -5.5 5t-12.5 9.5t-15 15.5t-14.5 21t-11 27t-3.5 33q2 55 52 92.5t113 32.5q61 -5 99 -35t46 -73q-7 1 -23 -0.5t-31.5 -4.5t-36 -17t-37.5 -37
q-13 -18 -16.5 -47.5t4.5 -46.5q-20 -4 -71 6zM680 163l12 -41q-4 2 -9.5 5t-17.5 9.5t-17 10.5q-6 -4 -25 -6.5t-44 -0.5t-52.5 18t-43.5 45q-36 80 38 137q38 23 82 23q39 -1 69 -17.5t45.5 -40.5t16.5 -51q1 -23 -12.5 -45.5t-23.5 -32t-18 -13.5zM646.5 301
q-7.5 0 -12.5 -5t-5 -12q0 -5 2.5 -9t6.5 -6t9 -2q17 0 17 17q0 7 -5 12t-12.5 5z" />
    <glyph glyph-name="uniE62F" unicode="&#xe62f;" 
d="M511 746q-72 0 -140 -22.5t-123 -63.5t-96 -96t-63.5 -122.5t-22.5 -140.5q0 -90 35.5 -172.5t95 -142t142 -94.5t173 -35t173 35t142 94.5t95 142t35.5 172.5q0 61 -16 118.5t-45 106.5t-70 90t-90 69.5t-106.5 44.5t-118.5 16zM674 208q0 -2 -3 -2t-6.5 2t-6.5 5
q-4 4 -8 9t-4 6q0 -2 -3 -9.5t-10 -18.5t-16 -19q1 0 3 -0.5t3.5 -1t4 -1.5t4.5 -2t4.5 -2t3.5 -2l4 -4q2 -2 3.5 -4t2 -4.5t1.5 -5.5q0 -5 -3.5 -10t-17.5 -11.5t-37 -8.5q-2 -1 -11.5 -0.5t-20 1.5t-22.5 5.5t-18 11.5h-18q-2 -3 -7 -6.5t-20.5 -7.5t-36.5 -4
q-8 0 -18 1.5t-21 4.5t-18.5 9.5t-8.5 15.5q0 2 1 4.5t4 6.5t9.5 7.5t15.5 5.5q-3 3 -9 8.5t-13.5 18t-10.5 25.5q-14 -25 -28 -25q-3 0 -5.5 5t-3 15t2.5 25q11 39 45 66q-4 26 11 42q-1 4 1 16t9 30t20 34t37.5 28t57.5 12q33 -1 57.5 -13.5t36 -26t18.5 -34t8 -26.5
t1 -16q3 -2 6.5 -11t5 -21.5t-6.5 -21.5q19 -16 32 -49t-1 -52z" />
    <glyph glyph-name="uniE630" unicode="&#xe630;" 
d="M891 534q-52 4 -97 20q-13 5 -29 11q-32 11 -78 38l-1 1q-6 3 -11.5 6.5t-10.5 7.5q-15 9 -31 20q0 1 -1 1l-22 16q-4 4 -14 12q-1 1 -4.5 3.5t-5.5 4.5q-40 33 -75 71l-15 -14l-14 -16q-8 -7 -15.5 -14t-15 -13.5t-15.5 -13.5q-2 -2 -5.5 -4.5t-5.5 -3.5q-10 -9 -14 -12
q-10 -8 -21 -16q-1 0 -1 -1q-8 -5 -15.5 -10.5t-15.5 -9.5q-4 -3 -7.5 -5.5t-7 -4.5t-7.5 -4l-1 -1q-46 -28 -79 -38q-4 -2 -9 -4t-9.5 -3.5t-9.5 -3.5q-22 -7 -47 -12.5t-50 -7.5q0 -6 0.5 -14.5t1 -14t1 -18t0.5 -16.5h1q4 -67 16 -130t30 -121q1 -1 1 -3l2 -4v-3l1 -2
l1 -3q44 -127 118 -215.5t166 -121.5v-1q21 -8 41 -12q6 1 12 3t13.5 4t15.5 5v1q92 33 166 121.5t118 215.5q0 1 0.5 2.5t1.5 2.5q0 2 1 5t2 5q18 58 30 121t16 130h1q0 4 0.5 16.5t1 18.5t1 14t0.5 14v0v0zM513 -105h-1h-1h-1h-1q-84 28 -157.5 112t-120.5 209.5
t-53 265.5q74 18 163 72.5t167 125.5l2 -1l1 -1l1 1l2 1q50 -46 106 -86t115 -70t109 -42q-6 -140 -53 -265.5t-120.5 -209.5t-157.5 -112v0zM326 337q-18 -18 0 -37l130 -135l1 -1l12 -12q4 -5 10.5 -7t13 0t11.5 7l225 234q5 7 2 13t-8 9l-6 4q-7 8 -17.5 8t-17.5 -8
l-196 -204l-134 141v0q-13 -1 -26 -12z" />
    <glyph glyph-name="uniE631" unicode="&#xe631;" 
d="M694 -144h-368q-29 0 -53 15t-38.5 40.5t-14.5 55.5v668q0 46 31 78.5t75 32.5h368q43 0 74 -32.5t31 -78.5v-668q0 -46 -31 -78.5t-74 -32.5v0zM687 699h-355q-22 0 -44.5 -23.5t-22.5 -46.5v-656q0 -15 10.5 -31.5t26.5 -27.5t30 -11h355q15 0 30.5 11t26 27.5
t10.5 31.5v656q0 1 -0.5 3.5t-2.5 10t-4.5 14t-8 14.5t-12 14t-16.5 10t-23 4zM643 90h-267q-44 0 -44 47v445q0 47 44 47h267q9 0 16 -2t12.5 -6t9 -9.5t5 -13t1.5 -16.5v-445q-1 -46 -44 -47zM643 582h-267v-445h267v445zM510 44q18 0 31 -14t13 -33.5t-13 -33t-31 -13.5
q-12 0 -22.5 6t-16.5 17t-6 24q1 21 12 32.5t22 13.5t11 1z" />
    <glyph glyph-name="uniE632" unicode="&#xe632;" 
d="M748 365v63v1v1v2q-1 98 -70.5 166.5t-167.5 68.5q-64 0 -118.5 -32t-86.5 -86.5t-32 -119.5v-64q-14 0 -27 -4.5t-24 -12.5t-18.5 -18.5t-12 -24t-4.5 -27.5v-215q0 -36 25 -61.5t61 -25.5h475q36 0 61 25.5t25 61.5v215q0 36 -25 61.5t-61 25.5zM316 429q0 81 57 138
t137.5 57t137.5 -57t57 -138v-1v-63h-389v64zM791 63q0 -9 -3.5 -17t-9 -14t-13.5 -9.5t-17 -3.5h-475q-18 0 -30.5 13t-12.5 31v215q0 18 12.5 31t30.5 13h475q18 0 30.5 -13t12.5 -31v-215zM510.5 278q-26.5 0 -45.5 -19t-19 -45q0 -21 12 -37.5t31 -23.5v-69
q0 -9 6.5 -15t15 -6t15 6t6.5 15v69q13 5 22.5 13.5t15 21t5.5 26.5q0 26 -19 45t-45.5 19zM510 192q-8 0 -14.5 6.5t-6.5 15.5t6.5 15t15 6t15 -6t6.5 -15q0 -6 -3 -11t-8 -8t-11 -3z" />
    <glyph glyph-name="uniE633" unicode="&#xe633;" 
d="M803 -134h-580q-44 0 -75 31t-31 75v263q0 44 31 75t75 31v79q0 120 84.5 205t205 85t205.5 -85t85 -205v-2h-1q0 -7 -3.5 -12.5t-9.5 -9t-13 -3.5t-12.5 3.5t-9 9t-4.5 12.5v2q0 48 -19 92t-50.5 75.5t-75.5 50.5t-92 19q-99 0 -168.5 -69.5t-69.5 -167.5v-79h528
q21 0 40.5 -8.5t33.5 -22.5t22.5 -33.5t8.5 -41.5v-263q0 -22 -8.5 -41.5t-22.5 -33.5t-33.5 -22.5t-40.5 -8.5zM855 235q0 11 -4 20.5t-11 16.5t-17 11.5t-20 4.5h-580q-22 0 -37.5 -15.5t-15.5 -37.5v-263q0 -22 15.5 -37.5t37.5 -15.5h580q14 0 26 7t19 19t7 27v263z
M539 82v-84q0 -11 -8 -18.5t-18.5 -7.5t-18.5 7.5t-8 18.5v84q-23 9 -38 29t-15 45q0 16 6.5 30.5t17 25.5t25 17t31.5 6q32 0 55.5 -23t23.5 -56q0 -25 -15 -45t-38 -29zM512.5 182q-10.5 0 -18.5 -7.5t-8 -18.5t8 -18.5t18.5 -7.5t18.5 7.5t8 18.5t-8 18.5t-18.5 7.5z" />
    <glyph glyph-name="uniE634" unicode="&#xe634;" 
d="M511 745q-91 0 -173.5 -35t-142 -94.5t-94.5 -142t-35 -173.5t35 -173t94.5 -142t142 -95t173.5 -35t173 35t142 95t95 142t35 173q0 41 -7 80.5t-20.5 75t-33 69t-44 62.5t-53.5 53.5t-62.5 44t-69.5 33t-75.5 20.5t-79.5 7zM784 425l-276 -327q-17 -15 -33 -13.5
t-27 13.5l-133 114l-7 -7q-8 -8 -19.5 -8t-20 8t-8.5 19.5t9 19.5l20 19q24 24 52 0l136 -116l264 313q5 6 12 8.5t14 1.5t13 -6t8.5 -12t1 -14.5t-5.5 -12.5z" />
    <glyph glyph-name="uniE635" unicode="&#xe635;" 
d="M512 745q-91 0 -173.5 -35t-142 -94.5t-94.5 -142t-35 -173t35 -173t94.5 -142t142 -95t173 -35.5t173 35.5t142 95t95 142t35.5 172.5q0 170 -113 297q-110 122 -271 144q-31 4 -61 4zM693 455q0 -9 -9 -9h-126l123 -123q2 -3 2 -6.5t-2 -6.5l-7 -6q-6 -7 -12 0
l-132 132v-308q0 -9 -9 -9h-9q-8 1 -9 9v308l-133 -133q-2 -3 -6 -3t-7 3l-6 7q-6 6 0 12l123 124h-135q-9 0 -9 9v9q0 9 9 9h345q9 0 9 -9v-9z" />
    <glyph glyph-name="uniE636" unicode="&#xe636;" 
d="M269 648h661q11 0 18.5 -8t7.5 -19t-7.5 -19t-18.5 -8h-661q-10 0 -17.5 8t-7.5 19q0 21 19 26q3 0 6 1zM269 329h661q6 0 10.5 -2t8 -5.5t5.5 -8.5t2 -10q0 -11 -7.5 -19t-18.5 -8h-661q-10 0 -17.5 8t-7.5 19q6 21 25 26zM269 11h661q11 0 18.5 -7.5t7.5 -18.5
q0 -8 -3.5 -14t-9.5 -9.5t-13 -3.5h-661q-5 0 -10 2t-8 5.5t-5 8.5t-2 11q0 20 19 25q3 1 6 1zM116 38q22 0 36.5 -15.5t14.5 -37.5t-14.5 -37.5t-36.5 -15.5q-13 0 -25 7t-18.5 19t-6.5 26.5t6.5 27t18.5 19.5t25 7zM116.5 356q21.5 0 36 -15.5t14.5 -37.5q0 -11 -4 -21
t-10.5 -17t-16 -11t-20.5 -4q-21 0 -35.5 15.5t-14.5 37.5t14.5 37.5t36 15.5zM116 674q22 0 36.5 -15.5t14.5 -37.5q0 -11 -4 -20.5t-10.5 -17t-16 -11.5t-20.5 -4q-13 0 -25 7t-18.5 19.5t-6.5 26.5q0 9 2.5 17t7 14.5t11 11.5t14 7.5t15.5 2.5z" />
    <glyph glyph-name="uniE637" unicode="&#xe637;" 
d="M890 311h-756q-9 0 -15.5 -7t-6.5 -16t6.5 -16t15.5 -7h756q4 0 8.5 2t7.5 5t4.5 7t1.5 9q0 2 -0.5 4.5t-1 4.5t-2.5 3l-2 4l-4 2q-1 2 -3 3t-4.5 1.5t-4.5 0.5zM870 175q-9 0 -15.5 -6.5t-6.5 -15.5v-1v-185q0 -9 -3 -12t-12 -3h-185q0 1 -1 1q-9 0 -15.5 -7t-6.5 -16
t6.5 -16t15.5 -7h223q9 0 16 7t7 16v222v1q0 6 -3 11t-8.5 8t-11.5 3zM377 -47q-1 0 -1 -1h-185q-5 0 -7.5 1t-4 2.5t-2.5 4t-1 7.5v185q1 0 1 1q0 9 -7 15.5t-16 6.5t-16 -6.5t-7 -15.5v-223q0 -5 2 -9t5 -7t7 -5t9 -2h223q9 0 15.5 7t6.5 16t-6.5 16t-15.5 7zM154 401
q9 0 16 6.5t7 15.5q0 1 -1 1v185q0 9 3 12t12 3h185l1 -1q9 0 15.5 7t6.5 16q0 5 -1.5 9t-4.5 7t-7.5 5t-8.5 2h-223q-5 0 -9 -2t-7 -5t-5 -7t-2 -9v-223q0 -22 23 -22zM647 623q1 0 1 1h185q9 0 12 -3t3 -12v-185v-1q0 -4 1.5 -8.5t4.5 -7.5t7 -4.5t9 -1.5q9 0 16 6.5
t7 15.5v1v222q0 4 -1.5 7.5t-3.5 6t-4.5 4.5t-6 3.5t-7.5 1.5h-223q-6 0 -11 -3t-8 -8.5t-3 -11.5t3 -11.5t8 -8.5t11 -3z" />
    <glyph glyph-name="uniE638" unicode="&#xe638;" 
d="M855 60h-175q-16 -16 -37.5 -38.5t-40.5 -42.5t-35.5 -38.5t-26 -29t-9.5 -11.5q-4 -4 -10 -4t-10 4q-124 128 -153 160h-172q-47 0 -80.5 37.5t-33.5 86.5v437q0 31 15 58t40.5 42.5t56.5 15.5h674q46 0 79 -34t33 -82v-437q0 -49 -34 -86.5t-81 -37.5zM296 447
q-23 0 -39.5 -17t-16.5 -41t16.5 -41.5t39.5 -17.5q15 0 28 8t20.5 21.5t7.5 29.5q0 24 -16.5 41t-39.5 17zM521 447q-23 0 -39.5 -17t-16.5 -41q0 -16 7.5 -29.5t20.5 -21.5t28 -8q23 0 39.5 17.5t16.5 41.5q0 37 -32 52q-12 6 -24 6zM746 447q-24 0 -40.5 -17t-16.5 -41
q0 -10 3 -19t8 -16t12 -12.5t15.5 -8.5t18.5 -3q23 0 39.5 17.5t16.5 41.5q0 37 -33 52q-11 6 -23 6z" />
    <glyph glyph-name="uniE639" unicode="&#xe639;" 
d="M511.5 -161q-91.5 0 -174.5 35.5t-143.5 96t-96 143.5t-35.5 174.5t35.5 174.5t96 143.5t143.5 96t175 35.5q73 0 141.5 -23t123.5 -64.5t97 -96.5t64.5 -123.5t22.5 -142.5q0 -91 -35.5 -174t-96 -143.5t-143.5 -96t-174.5 -35.5zM568 569h-113v-112h113v112zM568 345
q0 9 -3 17.5t-8 15.5t-12 12t-15.5 8t-17.5 3q-16 0 -29 -7.5t-20.5 -20.5t-7.5 -28v-281q0 -16 7.5 -28.5t20.5 -20t29 -7.5q23 0 39.5 16t16.5 40v281z" />
    <glyph glyph-name="uniE63A" unicode="&#xe63a;" 
d="M824 527q-21 5 -34 14t-19 19.5t-20.5 29.5t-33.5 37q-12 11 -25.5 19t-27.5 12.5t-29.5 7t-30 2t-29 -3t-27.5 -7.5t-24.5 -12.5t-20.5 -17.5q-33 -29 -40.5 -68.5t4 -73t33.5 -58.5q32 -35 33 -43q2 -12 -29 -33q-5 -3 -28 -17q-61 -39 -160 0q-25 9 -50.5 34
t-43.5 43.5t-30 17.5q-23 -3 -41 -44.5t-22 -104.5q-9 -151 87 -248q10 -11 20 -19q59 -49 119 -66t148 -19q37 -1 77.5 8t83 29t79.5 48q39 29 61.5 69.5t27 79t2 69t-9.5 49.5q-5 13 -12 28t-13 27l-13 25q-6 13 -10 23t-6.5 19t-2 15.5t4.5 10.5q10 9 24.5 16.5t24.5 11
t33 11.5q38 13 22 34q-13 16 -52 26zM770 467q-47 -12 -27 -80q3 -7 13.5 -27t20.5 -40t19.5 -50t9.5 -58.5t-9 -64.5q-19 -58 -52.5 -94t-107.5 -67q-83 -31 -159 -30.5t-138 26.5q-60 25 -105.5 74.5t-65 102t-13.5 94.5q5 45 10 72.5t11 42t11 19t13.5 -0.5t16 -12
t20.5 -19.5t25 -20.5q41 -30 85 -40.5t84 -3t77 29.5q31 18 47 32.5t17 26t-2 17t-12 14.5q-2 3 -3 4q-7 8 -17.5 18.5t-14.5 15.5t-9.5 13t-9.5 16t-7 19q-5 15 -5.5 32t8.5 39t29 37q24 18 52 25t56.5 0t52.5 -26q13 -11 23 -22.5t15.5 -21t9.5 -17.5t8 -15.5t9 -11.5
q8 -8 43 -15q28 -7 28 -11q1 -6 -33 -16zM453 253h-4q-3 0 -5 -1t-4 -2.5t-3 -4t-1 -5.5q0 -5 4 -9t9 -4h1v-1q44 -2 80.5 -16.5t58 -38.5t21.5 -51q0 -42 -46 -72.5t-114 -34.5h-1q-5 0 -9 -3.5t-4 -9t4 -9.5t9 -4h1q30 1 59 8.5t52 20t40 28.5t26.5 35.5t9.5 40.5
q0 52 -53.5 90.5t-130.5 42.5zM636.5 547q-11.5 0 -19 -7.5t-7.5 -19t7.5 -19t19 -7.5t19 7.5t7.5 19t-7.5 19t-19 7.5z" />
    <glyph glyph-name="uniE63B" unicode="&#xe63b;" 
d="M895 289q-1 30 -23.5 61.5t-85.5 74.5q-37 26 -82 39.5t-75.5 25.5t-46.5 38q-13 20 -21 31t-22 28t-27.5 24.5t-26.5 5.5q-15 -2 -26 -10t-16.5 -20.5t-9.5 -25t-4 -29.5v-26q0 -11 1 -24l1 -13q1 -14 -21.5 -31t-48.5 -27.5t-40 -12.5q-9 -1 -21.5 12t-25 29t-33.5 31
t-43 18q-26 3 -48.5 -19.5t-20.5 -70.5q1 -23 17 -42.5t31 -30t14.5 -13.5t-12.5 -11t-27 -24.5t-21 -37.5q-3 -19 -1.5 -39.5t12.5 -39.5t28 -29q21 -13 45 -6.5t43 21t36 35.5q13 15 26.5 20t23.5 3.5t23.5 -12t19.5 -16.5t17 -19q16 -18 23 -35t6 -29t-2 -25
q-3 -30 4.5 -48.5t25.5 -24.5q14 -3 30 1t37.5 20t31.5 24t34 30q19 16 37.5 21.5t33 3.5t40 4.5t54.5 24.5q62 39 100 87.5t36 77.5zM786 179q-31 -27 -64 -41.5t-55.5 -15t-43.5 0.5q-15 1 -28 -9t-28 -28.5t-26 -26.5q-20 -17 -34.5 -25.5t-23.5 -10t-14 1t-9 9.5
q-3 8 -3 24.5t2.5 32.5t-4 37.5t-25.5 38.5q-3 3 -13.5 14t-18.5 18t-19.5 16t-22.5 14t-21 5q-16 2 -31.5 -9t-34.5 -30.5t-28 -26.5q-36 -24 -61 -8.5t-24 53.5q1 8 3.5 16t7 16t11 15.5t15 14.5t18.5 14q14 8 19.5 14.5t3 12.5t-6 9t-11.5 9l-6 3q-27 19 -41 36
q-12 14 -13.5 33t6.5 33.5t22 18.5q12 4 24 -1.5t22.5 -16t22 -23t21.5 -23.5t22.5 -18t24.5 -5.5t26 6t28.5 11t28 14.5t24.5 16.5t19 17.5t11 17q3 10 2 25t-1.5 33.5t0 35t7 28.5t20.5 15q13 2 30 -16.5t32 -43t35 -46.5t37 -25q34 -7 48 -10t39 -13.5t54 -27.5
q52 -31 79 -59.5t28 -59.5q1 -20 -22.5 -49.5t-59.5 -60.5zM731 343q-4 0 -8.5 -1t-7.5 -3.5t-5.5 -6t-4 -8t-1.5 -8.5q0 -7 3.5 -13.5t10 -10t13.5 -3.5q12 0 20 8t8 19q0 3 -1 6t-2.5 6t-3 5t-4 4t-5 3.5t-6 2t-6.5 0.5z" />
    <glyph glyph-name="uniE63C" unicode="&#xe63c;" 
d="M887 366q-5 5 -9.5 8.5t-23 14.5t-49.5 27q-5 3 -15.5 7t-15.5 7t-11.5 8.5t-9 14t-1.5 20.5q0 8 2 13t5 8t6 6.5t6 6t5 8t3 12.5q3 21 -19 19q-17 -1 -62 -19q-16 -6 -27.5 -14t-13.5 -12.5t-6.5 -7t-8.5 0.5q-2 1 -17.5 14.5t-33.5 25t-54.5 22.5t-80.5 12
q-55 1 -102.5 -13.5t-73.5 -32.5l-46 -32q-19 -13 -26 -12q-15 7 -27 5t-21 -4.5t-15 -11.5t-10 -17.5t-6 -22.5t-2.5 -26.5t0 -29t2 -30t3.5 -29.5q5 -39 29 -86.5t25 -102.5t7 -65q10 -15 64 -16q12 -1 37 -1q38 0 45 6.5t8 39.5q0 2 0.5 3t0.5 3v3q0 6 7.5 7.5t21.5 0
t30 -3.5t37 -3.5t39 -0.5h17q8 0 13 -2t8.5 -4t5.5 -5.5t3 -7t1.5 -8t1 -8.5t1.5 -9.5t2 -9.5q4 -9 57.5 -9.5t77.5 9.5q6 3 6 19.5t-2 34t2 30.5q3 11 11.5 16t37 14.5t53.5 20.5q48 21 73 34t35 20q12 10 11.5 66t-11.5 69zM833 231l-23 -11l-21 -11q-12 -6 -21.5 -9.5
t-21 -8t-23.5 -8t-25 -6.5q-37 -9 -46 -20.5t-8 -33.5q1 -5 1.5 -13t0.5 -12v-12q0 -6 -1 -8.5t-3.5 -7.5t-6.5 -5.5t-10 -3.5t-15 -2t-21 0q-19 1 -27.5 11.5t-8.5 22t-3.5 21t-13.5 9.5q-51 0 -104.5 4t-78.5 13q-2 1 -6.5 2.5t-6.5 2.5t-6 2t-5.5 0.5t-4 -1.5t-2.5 -4
t-1.5 -7.5t0.5 -11.5q1 -17 0.5 -27t-3.5 -16.5t-9.5 -8.5t-16.5 -2.5t-25 0.5q-14 1 -22 1.5t-14.5 3t-9 3.5t-4.5 7t-2.5 9t-0.5 13t-1 17q-1 11 0 34.5t-1 23.5q-6 23 -28 72.5t-25 85.5q-1 13 -1 29.5t0.5 29t0.5 25t0.5 18t0.5 7.5l-1 -1v-1l1 2q0 2 12 0.5t25 -5
t33 3.5t37 26q20 24 67.5 42.5t94.5 19.5q82 2 124 -15.5t64 -46.5q12 -14 20.5 -17.5t15.5 0.5t18 17q10 12 23.5 20.5t23 10.5t13.5 0q1 -3 -2 -9.5t-6 -16.5t1 -28q2 -10 6 -17.5t11 -13t12 -8.5t15.5 -7.5t16.5 -7.5q7 -4 20.5 -11t18.5 -9.5t13.5 -7.5t11.5 -7t8 -7
t6 -8t3.5 -8t2.5 -10v-13q0 -7 0.5 -15t1 -13t0.5 -10t-1 -9v-6q-1 -4 -3 -6.5t-4.5 -5.5t-7 -6t-9.5 -6t-13 -7zM719 393q-11 0 -19 -8t-8 -19.5t8 -19t19 -7.5t19 7.5t8 19.5q0 7 -3.5 13t-10 10t-13.5 4z" />
    <glyph glyph-name="uniE63D" unicode="&#xe63d;" 
d="M782 511q0 6 -2.5 11t-6 9t-9 6.5t-11.5 2.5q-11 0 -19.5 -8.5t-8.5 -20.5t8.5 -20t20 -8t20 8t8.5 20zM810 433q15 4 33 5t28 1.5t17 5.5t7 17q0 5 -8 12t-18 13t-19 15.5t-12 18.5q-8 38 -30 59q6 4 12 11t10.5 14.5t8.5 16t6 16t3 13.5t-0.5 10.5t-5.5 5.5
q-8 2 -17 2.5t-16 -1t-12.5 -3.5t-8.5 -4l-3 -1q0 1 -0.5 2t-3.5 4.5t-7.5 6.5t-14.5 5.5t-23 2.5q-22 1 -36 -6.5t-18 -14.5l-3 -7l-7 3q-5 3 -21.5 3t-35.5 -6q-9 -4 -11.5 -11t1.5 -16.5t10 -18.5t15.5 -19t14.5 -15.5t10 -10.5q-15 -20 -28.5 -52.5t-24 -61t-19.5 -39.5
q-31 -41 -60 -57.5t-83 -13.5q-37 2 -68 9.5t-58.5 22.5t-43.5 26t-44 33l-12 9q-71 56 -83 32q-5 -11 -2 -37q3 -21 5.5 -36.5t4.5 -26.5t6 -20t5 -13.5t7 -10t7 -7t9.5 -7t10.5 -6.5q24 -13 24 -15q1 -1 -8 0h-14h-10h-8q-4 0 -6.5 -1.5t-4 -4.5t-1.5 -8t2 -14
q0 -4 2.5 -19.5t4 -20.5t4.5 -15.5t7 -17t10 -12.5q6 -7 12.5 -11.5t9 -6.5t4.5 -4.5t2 -6.5q3 -31 63.5 -74t135.5 -67l98 -31v-55q-24 -2 -27 -16q-2 -8 10 -10l4 -1q53 0 115 -1q19 0 18 9q0 9 -15 12h-5q-7 1 -20 1q-38 2 -44 5t-6 20v3v4v3v7q0 14 4.5 16.5t31.5 3.5
q20 1 34 1q22 3 47.5 12.5t54.5 25.5t55.5 43.5t41.5 60.5q54 116 0 199q-5 7 -9.5 15.5t-8 17t-6 17t-4 17t-0.5 16t4 13.5t9 10.5t15 6.5zM636 631q3 3 9 3.5t13 -1t13.5 -3.5t10.5 -4l4 -2q1 4 4 9.5t14 15.5t25 11q6 0 12 -1.5t11 -4t9 -5.5t7.5 -6t5.5 -5.5t3 -4.5
l1 -2l27 13q23 7 5 -23q-18 -28 -25 -25q-2 1 -7 2.5t-21 4.5t-31 0l-18 -3q-7 -2 -12 -4t-8.5 -4t-5 -4t-2.5 -4l-1 -1v-1l-31 26q-16 17 -12 23zM810 235q-3 -54 -20 -95t-63 -81q-95 -81 -229 -51q-41 9 -92 28t-88 40q66 -7 127 9q28 8 51.5 19.5t38 23t22.5 22.5t8 20
q2 18 -3.5 37t-15.5 24q-8 4 -13 1t-6 -9l-2 -6q0 -2 3 -6l4 -8q3 -4 4.5 -12.5t0.5 -20.5q-1 -16 -35.5 -36t-70.5 -28q-17 -4 -34.5 -5.5t-38 0t-43 6t-47.5 11.5q-5 8 -34 43t-40 57t-5 38q2 3 8.5 3t14 -1.5t17 2.5t17.5 15q5 8 5 16.5t-4.5 16t-10.5 9.5q-41 14 -65 63
q-19 39 -4 48q18 11 69 -37q56 -46 109 -64t125 -13q47 3 80.5 22.5t60.5 68.5q11 19 24.5 53t23 56t26.5 40.5t40 20.5q67 7 85 -57q6 -19 39 -46q11 -10 4 -10q-4 -1 -10.5 -0.5t-15.5 -0.5t-18 -1.5t-18.5 -4.5t-17 -10t-13 -16t-7.5 -24q-3 -29 28 -85t29 -85z" />
  </font>
</defs>
</svg>
